#!OML:ASF H:\Terrain\Patient Classification 1\Walking\liu\liu.ASF
:FULLY-SPECIFIED
:DEGREES
434
root 11.3671 17.5686 28.3931 6.52952 -10.974 1.53059
lowerback -6.57778 0.682434 -4.04169
upperback -1.44367 1.14658 1.3978
thorax 2.08745 0.54963 3.81191
lowerneck -20.962 -3.26873 -11.1758
upperneck 22.6655 -4.53495 13.4094
head 11.4286 -1.38544 6.18222
rclavicle -1.28837e-014 -3.97569e-015
rhumerus -43.3462 11.8785 -88.8657
rradius 38.2258
rwrist -18.5932
rhand -28.7296 -27.9338
rfingers 7.12502
rthumb -2.09053 -57.9034
lclavicle -1.28837e-014 -3.97569e-015
lhumerus -39.1576 -12.5862 92.7275
lradius 26.9714
lwrist 5.62062
lhand -10.7205 -22.4292
lfingers 7.12502
lthumb 15.2897 6.98569
rfemur -8.44341 -2.12216 16.1578
rtibia 60.3314
rfoot 5.97306 -9.95382
rtoes -15.4062
lfemur -24.41 7.43682 -25.4903
ltibia 23.5252
lfoot -7.39196 5.75238
ltoes 0.508769
435
root 11.3827 17.5458 28.449 6.51479 -10.8169 2.01137
lowerback -6.2723 0.550091 -4.68088
upperback -1.25569 1.00391 1.37457
thorax 2.1138 0.470975 4.1346
lowerneck -21.8238 -3.42446 -10.8699
upperneck 23.004 -4.62417 12.7493
head 11.7127 -1.4519 5.88008
rclavicle 3.47625e-014 1.31198e-014
rhumerus -42.7965 11.7186 -88.452
rradius 38.0091
rwrist -18.1632
rhand -28.4977 -27.2794
rfingers 7.12502
rthumb -1.86663 -57.251
lclavicle 3.47625e-014 1.31198e-014
lhumerus -38.0685 -12.6874 92.3843
lradius 27.199
lwrist 5.79998
lhand -10.6365 -22.6339
lfingers 7.12502
lthumb 15.3706 6.77479
rfemur -10.4133 -1.91087 16.1805
rtibia 62.0278
rfoot 4.88674 -11.3255
rtoes -13.1382
lfemur -24.1358 7.00131 -26.0126
ltibia 23.0529
lfoot -7.27499 5.97993
ltoes 1.10186
436
root 11.4086 17.6084 28.6621 6.10748 -10.643 2.69916
lowerback -6.77914 0.339731 -5.16989
upperback -1.03789 0.789613 1.2641
thorax 2.64008 0.340997 4.29057
lowerneck -22.5407 -3.46662 -10.4587
upperneck 23.825 -4.62225 12.0021
head 12.1366 -1.48673 5.55998
rclavicle -1.48343e-014 -3.97569e-016
rhumerus -42.9603 11.8419 -88.2731
rradius 37.8145
rwrist -18.0283
rhand -28.5701 -26.7981
rfingers 7.12502
rthumb -1.93649 -56.7691
lclavicle -1.48343e-014 -3.97569e-016
lhumerus -37.7539 -12.7597 92.2304
lradius 27.5011
lwrist 5.96899
lhand -10.9707 -22.9808
lfingers 7.12502
lthumb 15.0488 6.45231
rfemur -10.6765 -2.84282 15.1877
rtibia 62.7995
rfoot 3.79463 -11.0669
rtoes -10.4604
lfemur -22.6514 7.11297 -26.9465
ltibia 22.732
lfoot -8.13183 5.60911
ltoes 2.0517
437
root 11.429 17.5959 28.7439 6.34352 -10.1016 2.93145
lowerback -6.79805 0.0880726 -5.38378
upperback -0.945308 0.473924 1.23985
thorax 2.78061 0.175436 4.35996
lowerneck -23.6502 -3.48416 -9.77326
upperneck 24.5237 -4.63294 11.2376
head 12.5927 -1.49501 5.17673
rclavicle 8.52289e-015 1.07344e-014
rhumerus -42.5868 11.6702 -87.9917
rradius 37.7564
rwrist -17.9156
rhand -20.0549 -39.7467
rfingers 7.12502
rthumb 6.28683 -69.6334
lclavicle 8.52289e-015 1.07344e-014
lhumerus -36.7373 -13.3414 91.929
lradius 27.7003
lwrist 6.82082
lhand -10.4908 -22.8177
lfingers 7.12502
lthumb 15.511 6.58017
rfemur -12.5519 -3.3702 15.2875
rtibia 64.0333
rfoot 2.78516 -11.7086
rtoes -8.99365
lfemur -22.2677 6.66976 -27.3271
ltibia 21.9074
lfoot -7.85098 5.53107
ltoes 2.10489
438
root 11.4411 17.6211 28.8834 6.1604 -9.67706 2.38847
lowerback -6.72548 -0.0268918 -4.71826
upperback -0.728743 0.268268 1.36113
thorax 2.99112 0.0691333 4.09179
lowerneck -24.3093 -3.44301 -9.12646
upperneck 25.095 -4.60288 10.5448
head 12.9111 -1.49351 4.8226
rclavicle 8.89561e-015 -2.38542e-015
rhumerus -42.5456 11.142 -87.7116
rradius 37.8984
rwrist -17.6676
rhand -22.1334 -41.8911
rfingers 7.12502
rthumb 4.27995 -71.8279
lclavicle 8.89561e-015 -2.38542e-015
lhumerus -36.1125 -14.1225 91.7677
lradius 27.8853
lwrist 7.34462
lhand -10.4091 -22.718
lfingers 7.12502
lthumb 15.5897 6.67373
rfemur -13.2019 -3.59719 16.1843
rtibia 64.3827
rfoot 1.42997 -12.2714
rtoes -8.62294
lfemur -21.0013 6.48649 -26.7876
ltibia 21.1227
lfoot -7.98484 5.4766
ltoes 2.32745
439
root 11.5004 17.614 29.0447 5.88638 -8.91881 4.06994
lowerback -6.77042 -0.40758 -5.72131
upperback -0.927095 -0.149227 0.811683
thorax 2.85539 -0.139245 4.0472
lowerneck -24.5538 -3.38419 -8.71894
upperneck 25.9689 -4.55152 9.97036
head 13.2817 -1.50335 4.56943
rclavicle 8.69683e-017 -1.51076e-014
rhumerus -43.2313 10.8806 -87.5967
rradius 38.0943
rwrist -17.6252
rhand -23.0661 -36.2279
rfingers 7.12502
rthumb 3.37931 -66.1809
lclavicle 8.69683e-017 -1.51076e-014
lhumerus -36.3615 -14.6933 91.9535
lradius 27.9748
lwrist 6.9264
lhand -11.8102 -23.2511
lfingers 7.12502
lthumb 14.2399 6.24076
rfemur -13.8182 -5.38896 13.7463
rtibia 64.9358
rfoot 0.0643621 -10.9872
rtoes -8.18061
lfemur -19.9799 6.27378 -29.1041
ltibia 20.7865
lfoot -8.54888 4.79999
ltoes 2.67824
440
root 11.4546 17.6496 29.1565 5.85611 -8.90146 2.6907
lowerback -8.98772 -0.328305 -4.79748
upperback 1.34709 0.0325015 1.10185
thorax 6.47221 -0.183493 3.87018
lowerneck -29.8343 -4.16886 -6.9166
upperneck 27.3974 -5.51328 7.93999
head 14.9552 -1.8923 3.3016
rclavicle 5.96354e-016 8.34896e-015
rhumerus -39.4504 10.2271 -86.986
rradius 37.7679
rwrist -17.8413
rhand -20.7025 -28.9264
rfingers 7.12502
rthumb 5.66162 -58.8308
lclavicle 5.96354e-016 8.34896e-015
lhumerus -32.0019 -16.0374 90.7731
lradius 27.7135
lwrist 6.93266
lhand -12.7628 -23.5723
lfingers 7.12502
lthumb 13.3218 5.98188
rfemur -15.0096 -4.35089 16.3371
rtibia 65.1115
rfoot -1.44895 -12.2393
rtoes -6.89376
lfemur -19.2783 6.10069 -27.2336
ltibia 20.3671
lfoot -8.52789 5.17089
ltoes 2.86294
441
root 11.4742 17.6656 29.2679 5.97171 -8.34501 2.53344
lowerback -5.9664 -0.714214 -4.98027
upperback -1.09517 -0.676104 1.49745
thorax 2.29041 -0.378099 4.29912
lowerneck -24.1394 -3.16876 -9.04419
upperneck 26.1107 -4.33653 10.5313
head 13.254 -1.37779 4.89813
rclavicle -2.97556e-014 -1.07344e-014
rhumerus -43.795 11.3303 -87.5123
rradius 38.4664
rwrist -18.3554
rhand -22.8106 -37.8774
rfingers 7.12502
rthumb 3.626 -67.8263
lclavicle -2.97556e-014 -1.07344e-014
lhumerus -35.6651 -14.5996 91.3531
lradius 28.2347
lwrist 5.98856
lhand -12.5913 -23.8131
lfingers 7.12502
lthumb 13.4871 5.73019
rfemur -16.2775 -5.01566 16.744
rtibia 65.2941
rfoot -2.62664 -11.7302
rtoes -8.4976
lfemur -18.8204 5.89475 -27.1822
ltibia 20.0923
lfoot -8.6738 4.90683
ltoes 2.98967
442
root 11.4912 17.6711 29.3759 5.83071 -8.04535 2.68325
lowerback -6.28039 -0.772801 -4.99926
upperback -0.54831 -0.724121 1.36813
thorax 3.03743 -0.433791 4.16771
lowerneck -26.4659 -3.76686 -8.20498
upperneck 27.3545 -5.07638 9.34351
head 14.2898 -1.72188 4.1932
rclavicle -2.93207e-014 -8.34896e-015
rhumerus -43.1227 11.1568 -87.3205
rradius 38.6245
rwrist -18.7995
rhand -25.7906 -36.5177
rfingers 7.12502
rthumb 0.747948 -66.4962
lclavicle -2.93207e-014 -8.34896e-015
lhumerus -34.0875 -14.867 90.6473
lradius 28.3193
lwrist 5.90637
lhand -11.9002 -23.7913
lfingers 7.12502
lthumb 14.1531 5.70667
rfemur -17.3397 -5.35541 16.8359
rtibia 65.396
rfoot -3.90258 -11.2115
rtoes -10.6715
lfemur -18.4279 5.75017 -27.4102
ltibia 20.3983
lfoot -9.24273 4.78937
ltoes 3.13698
443
root 11.5035 17.6641 29.511 5.80754 -7.63534 2.37084
lowerback -5.58251 -0.944146 -4.74245
upperback -1.15986 -1.01818 1.57403
thorax 2.04442 -0.539591 4.22044
lowerneck -24.4828 -3.41714 -8.93486
upperneck 26.8162 -4.64852 10.148
head 13.6435 -1.54964 4.70033
rclavicle 2.59538e-014 -3.97569e-016
rhumerus -44.336 11.1503 -87.2134
rradius 38.6045
rwrist -18.7934
rhand -26.3553 -35.3709
rfingers 7.12502
rthumb 0.202586 -65.3506
lclavicle 2.59538e-014 -3.97569e-016
lhumerus -34.6453 -14.7095 90.631
lradius 28.5543
lwrist 5.79411
lhand -11.4842 -23.5923
lfingers 7.12502
lthumb 14.554 5.87713
rfemur -18.1552 -5.22923 17.5393
rtibia 65.3034
rfoot -5.4972 -11.0055
rtoes -12.012
lfemur -17.9802 5.78904 -27.1697
ltibia 20.6483
lfoot -9.93376 4.44421
ltoes 3.75967
444
root 11.5075 17.6531 29.5981 5.94573 -7.41568 2.14038
lowerback -5.87746 -1.06143 -4.65513
upperback -0.769655 -1.16407 1.6847
thorax 2.63002 -0.635616 4.26897
lowerneck -23.2718 -3.43578 -10.4085
upperneck 25.1818 -4.68142 12.0963
head 12.8305 -1.48116 5.65791
rclavicle 1.55301e-014 4.77083e-015
rhumerus -43.4125 10.8147 -86.8516
rradius 38.2262
rwrist -18.7881
rhand -26.7304 -34.021
rfingers 7.12502
rthumb -0.159731 -64.0007
lclavicle 1.55301e-014 4.77083e-015
lhumerus -33.126 -14.8896 90.0824
lradius 28.4941
lwrist 5.74593
lhand -11.5141 -23.4047
lfingers 7.12502
lthumb 14.5252 6.06677
rfemur -19.6618 -5.18326 18.2303
rtibia 65.2521
rfoot -6.6392 -10.781
rtoes -13.0943
lfemur -17.9411 5.55131 -26.9153
ltibia 20.8814
lfoot -10.3175 4.54487
ltoes 4.4146
445
root 11.5197 17.6485 29.7242 5.89877 -7.06252 2.11209
lowerback -6.20304 -1.17999 -4.50599
upperback -0.429747 -1.31206 1.63376
thorax 3.17667 -0.728023 4.11168
lowerneck -23.1163 -3.82018 -11.0247
upperneck 24.7989 -5.20656 12.8187
head 12.7673 -1.68556 5.94625
rclavicle -2.36057e-015 -8.74653e-015
rhumerus -43.0524 10.3538 -86.5734
rradius 38.2933
rwrist -18.8107
rhand -25.6413 -35.6127
rfingers 7.12502
rthumb 0.892154 -65.5906
lclavicle -2.36057e-015 -8.74653e-015
lhumerus -32.0017 -15.3791 89.6858
lradius 28.5113
lwrist 6.18057
lhand -11.9019 -23.5876
lfingers 7.12502
lthumb 14.1516 5.9104
rfemur -20.6274 -5.62959 18.4673
rtibia 65.0069
rfoot -8.15908 -10.1978
rtoes -14.5586
lfemur -17.5302 5.31816 -26.9356
ltibia 21.1862
lfoot -10.8689 4.47486
ltoes 4.48535
446
root 11.5293 17.6369 29.8581 5.61706 -6.69697 2.58175
lowerback -5.53184 -1.42717 -5.19178
upperback -0.804407 -1.63614 1.71162
thorax 2.46776 -0.8715 4.56746
lowerneck -22.7396 -3.64984 -11.0195
upperneck 25.3194 -4.93831 12.4518
head 12.8442 -1.62696 5.86765
rclavicle 2.59414e-014 -5.1684e-015
rhumerus -44.1512 10.4635 -86.3352
rradius 38.6755
rwrist -18.8068
rhand -26.7145 -36.2633
rfingers 7.12502
rthumb -0.144313 -66.243
lclavicle 2.59414e-014 -5.1684e-015
lhumerus -32.3311 -15.5506 89.8724
lradius 28.7293
lwrist 6.74816
lhand -12.3192 -23.8765
lfingers 7.12502
lthumb 13.7494 5.64925
rfemur -21.3164 -5.94419 18.1495
rtibia 64.7357
rfoot -9.98432 -9.67902
rtoes -15.0094
lfemur -16.8098 5.01046 -27.4755
ltibia 21.3647
lfoot -11.5809 4.43745
ltoes 4.15684
